<svg width="12" height="14" viewBox="0 0 12 14" fill="none" xmlns="http://www.w3.org/2000/svg">
<path fill-rule="evenodd" clip-rule="evenodd" d="M1.34816 1.21917C1.7482 0.874158 2.33192 0.94408 2.65195 1.37534L6.82586 7.00004L2.65194 12.6247C2.33192 13.056 1.74819 13.1259 1.34816 12.7809C0.948129 12.4359 0.883271 11.8066 1.2033 11.3753L4.45008 7.00004L1.2033 2.62473C0.883272 2.19347 0.94813 1.56418 1.34816 1.21917ZM5.5223 1.21917C5.92234 0.874159 6.50606 0.94408 6.82609 1.37534L11 7.00004L6.82609 12.6247C6.50606 13.056 5.92234 13.1259 5.5223 12.7809C5.12227 12.4359 5.05741 11.8066 5.37744 11.3753L8.62422 7.00004L5.37744 2.62473C5.05741 2.19347 5.12227 1.56418 5.5223 1.21917Z" fill="#999999"/>
<path fill-rule="evenodd" clip-rule="evenodd" d="M1.34816 1.21917C1.7482 0.874158 2.33192 0.94408 2.65195 1.37534L6.82586 7.00004L2.65194 12.6247C2.33192 13.056 1.74819 13.1259 1.34816 12.7809C0.948129 12.4359 0.883271 11.8066 1.2033 11.3753L4.45008 7.00004L1.2033 2.62473C0.883272 2.19347 0.94813 1.56418 1.34816 1.21917ZM5.5223 1.21917C5.92234 0.874159 6.50606 0.94408 6.82609 1.37534L11 7.00004L6.82609 12.6247C6.50606 13.056 5.92234 13.1259 5.5223 12.7809C5.12227 12.4359 5.05741 11.8066 5.37744 11.3753L8.62422 7.00004L5.37744 2.62473C5.05741 2.19347 5.12227 1.56418 5.5223 1.21917Z" stroke="black" stroke-linecap="round"/>
<path fill-rule="evenodd" clip-rule="evenodd" d="M1.34816 1.21917C1.7482 0.874158 2.33192 0.94408 2.65195 1.37534L6.82586 7.00004L2.65194 12.6247C2.33192 13.056 1.74819 13.1259 1.34816 12.7809C0.948129 12.4359 0.883271 11.8066 1.2033 11.3753L4.45008 7.00004L1.2033 2.62473C0.883272 2.19347 0.94813 1.56418 1.34816 1.21917ZM5.5223 1.21917C5.92234 0.874159 6.50606 0.94408 6.82609 1.37534L11 7.00004L6.82609 12.6247C6.50606 13.056 5.92234 13.1259 5.5223 12.7809C5.12227 12.4359 5.05741 11.8066 5.37744 11.3753L8.62422 7.00004L5.37744 2.62473C5.05741 2.19347 5.12227 1.56418 5.5223 1.21917Z" stroke="black" stroke-opacity="0.2" stroke-linecap="round"/>
</svg>
